# Blender v2.79 (sub 0) OBJ File: '30x30x60.blend'
# www.blender.org
mtllib 30x30x60.mtl
o Cube
v 1.000000 -2.000000 -0.200000
v 1.000000 -2.000000 0.200000
v -1.000000 -2.000000 0.200000
v -1.000000 -2.000000 -0.200000
v 1.000000 2.000000 -0.200000
v 0.999999 2.000000 0.200000
v -1.000000 2.000000 0.200000
v -1.000000 2.000000 -0.200000
v 0.821528 -1.770850 0.200000
v -0.821529 -1.770850 0.200000
v 0.821528 1.770850 0.200000
v -0.821529 1.770850 0.200000
v 0.821528 -1.770850 -0.198268
v -0.821529 -1.770850 -0.198268
v 0.821528 1.770850 -0.198268
v -0.821529 1.770850 -0.198268
v -0.821529 0.620229 -0.198268
v 0.821528 0.620229 -0.198268
v 0.821528 0.456052 -0.198268
v -0.821529 0.456052 -0.198268
v -0.821529 0.456052 0.204081
v -0.821529 0.620229 0.204081
v 0.821528 0.456052 0.204081
v 0.821528 0.620229 0.204081
vt 1.003733 -0.001309
vt 1.003733 0.086252
vt 0.001228 0.086252
vt 0.001228 -0.001309
vt 1.000000 1.000000
vt 0.000000 1.000000
vt 0.000000 0.896458
vt 1.000000 0.896458
vt 0.903125 0.000000
vt 1.000000 0.000000
vt 1.000000 1.000000
vt 0.903125 1.000000
vt 0.000000 1.000000
vt 0.000000 0.877860
vt 1.000000 0.877860
vt 0.141153 -0.001032
vt 0.141153 0.999883
vt 0.000526 0.999883
vt 0.000526 -0.001032
vt 0.997207 -0.002183
vt 0.997207 1.001011
vt 0.002793 1.001011
vt 0.002793 -0.002183
vt 0.000000 0.000000
vt 1.000000 0.000000
vt 1.000000 1.000000
vt 0.000000 1.000000
vt 0.002325 0.998351
vt 0.006562 0.001162
vt 0.104762 0.001649
vt 0.100525 0.998838
vt 0.997720 0.001109
vt 0.997720 0.998891
vt 0.865430 0.998891
vt 0.865430 0.001109
vt 0.000000 0.000000
vt 1.000000 0.000000
vt 1.000000 0.099822
vt 0.000000 0.099822
vt 0.994272 0.003605
vt 0.994272 0.559445
vt 0.005728 0.559445
vt 0.005728 0.003605
vt 0.997104 0.000264
vt 0.997104 1.000833
vt 0.892045 1.000833
vt 0.892045 0.000370
vt 0.898902 0.000035
vt 0.898907 0.000264
vt 0.003206 0.996563
vt -0.003044 0.004768
vt 0.091540 0.000081
vt 0.103044 0.329508
vt 0.095375 0.329605
vt 0.097790 0.991876
vt 0.000000 0.000000
vt 1.000000 0.000000
vt 1.000000 1.000000
vt 0.000000 1.000000
vt 0.000296 0.565144
vt 1.002665 0.570170
vt 1.002665 0.622475
vt 0.000296 0.617449
vt 0.000000 0.608187
vt 1.000000 0.608187
vt 1.000000 1.000000
vt 0.000000 1.000000
vt 1.000000 0.618726
vt 0.000000 0.618726
vt 0.000000 0.518904
vt 1.000000 0.518904
vt 0.000000 0.000000
vt 1.000000 0.000000
vt 1.000000 1.000000
vt 0.000000 1.000000
vt 0.000000 0.494726
vt 1.000000 0.494726
vt 1.000000 0.570370
vt 0.000000 0.570370
vt 0.000000 0.000000
vt 1.000000 0.000000
vt 1.000000 1.000000
vt 0.000000 1.000000
vn 0.0000 -1.0000 0.0000
vn 0.0000 1.0000 0.0000
vn 1.0000 0.0000 0.0000
vn -0.0000 -0.0000 1.0000
vn -1.0000 -0.0000 -0.0000
vn 0.0000 0.0000 -1.0000
usemtl Material.001
s off
f 1/1/1 2/2/1 3/3/1 4/4/1
f 5/5/2 8/6/2 7/7/2 6/8/2
f 1/9/3 5/10/3 6/11/3 2/12/3
f 6/11/4 7/13/4 12/14/4 11/15/4
f 3/16/5 7/17/5 8/18/5 4/19/5
f 5/20/6 1/21/6 4/22/6 8/23/6
f 11/24/1 12/25/1 16/26/1 15/27/1
f 7/28/4 3/29/4 10/30/4 12/31/4
f 2/32/4 6/33/4 11/34/4 9/35/4
f 3/36/4 2/37/4 9/38/4 10/39/4
f 13/40/4 19/41/4 20/42/4 14/43/4
f 9/44/5 11/45/5 15/46/5 18/47/5 19/48/5 13/49/5
f 12/50/3 10/51/3 14/52/3 20/53/3 17/54/3 16/55/3
f 10/56/2 9/57/2 13/58/2 14/59/2
f 21/60/4 23/61/4 24/62/4 22/63/4
f 17/64/4 18/65/4 15/66/4 16/67/4
f 18/68/2 17/69/2 22/70/2 24/71/2
f 17/72/5 20/73/5 21/74/5 22/75/5
f 20/76/1 19/77/1 23/78/1 21/79/1
f 19/80/3 18/81/3 24/82/3 23/83/3
