# Blender v2.79 (sub 0) OBJ File: '30x30_2.blend'
# www.blender.org
mtllib 30x30_2.mtl
o Cube
v 1.000000 -1.000000 -0.219504
v 1.000000 -1.000000 0.219504
v -1.000000 -1.000000 0.219504
v -1.000000 -1.000000 -0.219505
v 1.000000 1.000000 -0.219504
v 0.999999 1.000000 0.219505
v -1.000000 1.000000 0.219504
v -1.000000 1.000000 -0.219504
v 0.779847 -0.779846 -0.228831
v -0.779846 -0.779846 -0.228832
v 0.779847 0.779846 -0.228831
v -0.779846 0.779846 -0.228831
v 0.779846 -0.779847 0.213193
v -0.779846 -0.779847 0.213193
v 0.779847 0.779846 0.213193
v -0.779846 0.779846 0.213193
vt 0.010282 1.001099
vt 0.010282 0.001170
vt 0.123679 0.111239
vt 0.123679 0.891030
vt 0.973545 0.107926
vt 0.973545 0.890121
vt 0.866369 0.890121
vt 0.866369 0.107927
vt 0.971752 0.999463
vt 0.015979 0.999463
vt 0.121187 0.916695
vt 0.866544 0.916695
vt 0.993705 0.007321
vt 0.993705 0.989789
vt 0.885248 0.881642
vt 0.885248 0.115467
vt 0.003245 0.002318
vt 0.992907 0.002318
vt 0.883968 0.088021
vt 0.112184 0.088021
vt 0.118257 0.889870
vt 0.118257 0.106768
vt 0.866142 0.106768
vt 0.866142 0.889870
vt 0.119272 0.015089
vt 0.867079 0.015089
vt 0.867079 0.104052
vt 0.119272 0.104052
vt 0.865995 0.993657
vt 0.120403 0.993658
vt 0.120403 0.891108
vt 0.865996 0.891108
vt 0.012887 0.889727
vt 0.012887 0.109652
vt 0.114261 0.109652
vt 0.114261 0.889726
vn 0.0423 0.0000 -0.9991
vn 1.0000 0.0000 0.0000
vn 0.0000 0.0423 -0.9991
vn -0.0423 0.0000 -0.9991
vn 0.0000 -0.0423 -0.9991
vn 0.0000 0.0000 -1.0000
vn -0.0000 1.0000 0.0000
vn 0.0000 -1.0000 -0.0000
vn -1.0000 0.0000 -0.0000
usemtl Material.002
s off
f 5/1/1 1/2/1 9/3/1 11/4/1
f 10/5/2 12/6/2 16/7/2 14/8/2
f 8/9/3 5/10/3 11/11/3 12/12/3
f 4/13/4 8/14/4 12/15/4 10/16/4
f 1/17/5 4/18/5 10/19/5 9/20/5
f 15/21/6 13/22/6 14/23/6 16/24/6
f 9/25/7 10/26/7 14/27/7 13/28/7
f 12/29/8 11/30/8 15/31/8 16/32/8
f 11/33/9 9/34/9 13/35/9 15/36/9
l 1 2
l 2 3
l 2 6
l 3 4
l 3 7
l 5 6
l 6 7
l 7 8
