# Blender v2.79 (sub 0) OBJ File: '30x30x60_new2_middil.blend'
# www.blender.org
mtllib 30x30x60_new2_middil.mtl
o Cube
v 1.000000 -0.285422 -0.258306
v 1.000000 -0.285422 0.258306
v -1.000000 -0.285422 0.258306
v -1.000000 -0.285422 -0.258306
v 1.000000 0.285422 -0.258306
v 0.999999 0.285422 0.258307
v -1.000000 0.285422 0.258306
v -1.000000 0.285422 -0.258306
vt 0.937132 0.350627
vt 0.937132 0.446092
vt 0.058701 0.446092
vt 0.058701 0.350627
vt 0.930843 0.651236
vt 0.069158 0.651236
vt 0.069157 0.559465
vt 0.930842 0.559465
vt 0.968386 0.372856
vt 0.968386 0.459793
vt 0.852447 0.459793
vt 0.852447 0.372856
vt 0.926133 0.450668
vt 0.926133 0.556947
vt 0.067617 0.556947
vt 0.067617 0.450669
vt 0.127892 0.418843
vt 0.127892 0.510663
vt 0.005442 0.510663
vt 0.005442 0.418843
vt 0.105873 0.521195
vt 0.105873 0.417684
vt 0.929544 0.417684
vt 0.929544 0.521195
vn 0.0000 -1.0000 0.0000
vn 0.0000 1.0000 0.0000
vn 1.0000 0.0000 0.0000
vn -0.0000 -0.0000 1.0000
vn -1.0000 -0.0000 -0.0000
vn 0.0000 0.0000 -1.0000
usemtl Material
s off
f 1/1/1 2/2/1 3/3/1 4/4/1
f 5/5/2 8/6/2 7/7/2 6/8/2
f 1/9/3 5/10/3 6/11/3 2/12/3
f 2/13/4 6/14/4 7/15/4 3/16/4
f 3/17/5 7/18/5 8/19/5 4/20/5
f 5/21/6 1/22/6 4/23/6 8/24/6
