# Blender v2.79 (sub 0) OBJ File: '30x30x60_new5.blend'
# www.blender.org
mtllib 30x30x60_03.mtl
o Cube
v 1.000000 -1.503676 -0.300451
v 1.000000 -1.503676 0.191697
v -1.000000 -1.503676 0.191697
v -1.000000 -1.503676 -0.300451
v 1.000000 1.495210 -0.300450
v 0.999999 1.495210 0.191698
v -1.000000 1.495210 0.191697
v -1.000000 1.495210 -0.300451
v 0.826307 -1.316193 0.191697
v -0.826308 -1.316193 0.191697
v 0.826307 1.307727 0.191698
v -0.826308 1.307727 0.191697
v 0.826307 -1.316193 -0.208303
v -0.826308 -1.316193 -0.208303
v 0.826307 1.307727 -0.208302
v -0.826308 1.307727 -0.208303
vt 0.012503 0.017735
vt 0.994879 0.017735
vt 0.909563 0.083859
vt 0.097819 0.083859
vt 0.004903 0.917917
vt 0.004903 0.085876
vt 0.083472 0.085876
vt 0.083472 0.917917
vt 0.999909 0.998837
vt 0.001505 0.998837
vt 0.088212 0.921793
vt 0.913201 0.921792
vt 0.008805 0.973396
vt 0.008805 0.022917
vt 0.085472 0.082338
vt 0.085472 0.913974
vt 0.995555 0.027235
vt 0.995555 0.970644
vt 0.920074 0.911664
vt 0.920074 0.086214
vt 0.914450 0.087396
vt 0.914450 0.916253
vt 0.089422 0.916253
vt 0.089422 0.087396
vt 0.099016 0.019470
vt 0.909582 0.019470
vt 0.909582 0.084820
vt 0.099016 0.084820
vt 0.915139 0.997676
vt 0.087889 0.997676
vt 0.087889 0.920996
vt 0.915139 0.920996
vt 0.996966 0.086413
vt 0.996966 0.910517
vt 0.918374 0.910517
vt 0.918374 0.086413
vn -0.0000 -0.0000 1.0000
vn 1.0000 0.0000 0.0000
vn 0.0000 1.0000 0.0000
vn 0.0000 -1.0000 0.0000
vn -1.0000 -0.0000 0.0000
usemtl Material
s off
f 3/1/1 2/2/1 9/3/1 10/4/1
f 12/5/2 10/6/2 14/7/2 16/8/2
f 6/9/1 7/10/1 12/11/1 11/12/1
f 7/13/1 3/14/1 10/15/1 12/16/1
f 2/17/1 6/18/1 11/19/1 9/20/1
f 13/21/1 15/22/1 16/23/1 14/24/1
f 10/25/3 9/26/3 13/27/3 14/28/3
f 11/29/4 12/30/4 16/31/4 15/32/4
f 9/33/5 11/34/5 15/35/5 13/36/5
l 1 2
l 1 4
l 1 5
l 3 4
l 4 8
l 5 6
l 5 8
l 7 8
